# Blender v2.93.4 OBJ File: 'fire_essence2.blend'
# www.blender.org
mtllib spell2.mtl
o main
v 0.704124 0.316667 0.617851
v 0.295876 0.316667 0.617851
v 0.500000 0.316667 0.264298
v 0.500000 0.650000 0.500000
vt 0.346428 0.599988
vt 0.346428 0.999941
vt 0.000059 0.799965
vt 0.000059 0.400012
vt 0.346428 0.200035
vt 0.000059 0.000059
vn 0.0000 -1.0000 -0.0000
vn 0.8165 0.3333 -0.4714
vn 0.0000 0.3333 0.9428
vn -0.8165 0.3333 -0.4714
usemtl main
s 1
f 1/1/1 2/2/1 3/3/1
f 1/1/2 3/3/2 4/4/2
f 1/1/3 4/4/3 2/5/3
f 2/5/4 4/4/4 3/6/4
o b.000
v 0.741500 0.916333 0.517560
v 0.782325 0.916333 0.588270
v 0.700675 0.916333 0.588270
v 0.741500 0.983000 0.564700
vt 0.346428 0.599988
vt 0.346428 0.999941
vt 0.000059 0.799965
vt 0.000059 0.400012
vt 0.346428 0.200035
vt 0.000059 0.000059
vn 0.0000 -1.0000 0.0000
vn -0.8165 0.3333 -0.4714
vn 0.8165 0.3333 -0.4714
vn 0.0000 0.3333 0.9428
usemtl b.000
s 1
f 5/7/5 6/8/5 7/9/5
f 5/7/6 7/9/6 8/10/6
f 5/7/7 8/10/7 6/11/7
f 6/11/8 8/10/8 7/12/8
o b.001
v 0.804032 0.877333 0.404669
v 0.844857 0.877333 0.475380
v 0.763208 0.877333 0.475380
v 0.804032 0.944000 0.451809
vt 0.346428 0.599988
vt 0.346428 0.999941
vt 0.000059 0.799965
vt 0.000059 0.400012
vt 0.346428 0.200035
vt 0.000059 0.000059
vn 0.0000 -1.0000 0.0000
vn -0.8165 0.3333 -0.4714
vn 0.8165 0.3333 -0.4714
vn 0.0000 0.3333 0.9428
usemtl b.001
s 1
f 9/13/9 10/14/9 11/15/9
f 9/13/10 11/15/10 12/16/10
f 9/13/11 12/16/11 10/17/11
f 10/17/12 12/16/12 11/18/12
o b.002
v 0.801663 0.830633 0.256965
v 0.842488 0.830633 0.327676
v 0.760838 0.830633 0.327676
v 0.801663 0.897300 0.304106
vt 0.346428 0.599988
vt 0.346428 0.999941
vt 0.000059 0.799965
vt 0.000059 0.400012
vt 0.346428 0.200035
vt 0.000059 0.000059
vn 0.0000 -1.0000 0.0000
vn -0.8165 0.3333 -0.4714
vn 0.8165 0.3333 -0.4714
vn 0.0000 0.3333 0.9428
usemtl b.002
s 1
f 13/19/13 14/20/13 15/21/13
f 13/19/14 15/21/14 16/22/14
f 13/19/15 16/22/15 14/23/15
f 14/23/16 16/22/16 15/24/16
o b.003
v 0.720302 0.777233 0.113644
v 0.761127 0.777233 0.184355
v 0.679477 0.777233 0.184355
v 0.720302 0.843900 0.160784
vt 0.346428 0.599988
vt 0.346428 0.999941
vt 0.000059 0.799965
vt 0.000059 0.400012
vt 0.346428 0.200035
vt 0.000059 0.000059
vn 0.0000 -1.0000 0.0000
vn -0.8165 0.3333 -0.4714
vn 0.8165 0.3333 -0.4714
vn 0.0000 0.3333 0.9428
usemtl b.003
s 1
f 17/25/17 18/26/17 19/27/17
f 17/25/18 19/27/18 20/28/18
f 17/25/19 20/28/19 18/29/19
f 18/29/20 20/28/20 19/30/20
o b.004
v 0.569018 0.718033 0.016813
v 0.609843 0.718033 0.087524
v 0.528194 0.718033 0.087524
v 0.569018 0.784700 0.063954
vt 0.346428 0.599988
vt 0.346428 0.999941
vt 0.000059 0.799965
vt 0.000059 0.400012
vt 0.346428 0.200035
vt 0.000059 0.000059
vn 0.0000 -1.0000 0.0000
vn -0.8165 0.3333 -0.4714
vn 0.8165 0.3333 -0.4714
vn 0.0000 0.3333 0.9428
usemtl b.004
s 1
f 21/31/21 22/32/21 23/33/21
f 21/31/22 23/33/22 24/34/22
f 21/31/23 24/34/23 22/35/23
f 22/35/24 24/34/24 23/36/24
o b.005
v 0.378395 0.654333 -0.000956
v 0.419220 0.654333 0.069755
v 0.337570 0.654333 0.069755
v 0.378395 0.721000 0.046184
vt 0.346428 0.599988
vt 0.346428 0.999941
vt 0.000059 0.799965
vt 0.000059 0.400012
vt 0.346428 0.200035
vt 0.000059 0.000059
vn 0.0000 -1.0000 0.0000
vn -0.8165 0.3333 -0.4714
vn 0.8165 0.3333 -0.4714
vn 0.0000 0.3333 0.9428
usemtl b.005
s 1
f 25/37/25 26/38/25 27/39/25
f 25/37/26 27/39/26 28/40/26
f 25/37/27 28/40/27 26/41/27
f 26/41/28 28/40/28 27/42/28
o b.006
v 0.192186 0.587333 0.072720
v 0.233010 0.587333 0.143430
v 0.151361 0.587333 0.143430
v 0.192186 0.654000 0.119860
vt 0.346428 0.599988
vt 0.346428 0.999941
vt 0.000059 0.799965
vt 0.000059 0.400012
vt 0.346428 0.200035
vt 0.000059 0.000059
vn 0.0000 -1.0000 -0.0000
vn -0.8165 0.3333 -0.4714
vn 0.8165 0.3333 -0.4714
vn 0.0000 0.3333 0.9428
usemtl b.006
s 1
f 29/43/29 30/44/29 31/45/29
f 29/43/30 31/45/30 32/46/30
f 29/43/31 32/46/31 30/47/31
f 30/47/32 32/46/32 31/48/32
o b.007
v 0.055538 0.518233 0.226438
v 0.096362 0.518233 0.297149
v 0.014713 0.518233 0.297149
v 0.055538 0.584900 0.273578
vt 0.346428 0.599988
vt 0.346428 0.999941
vt 0.000059 0.799965
vt 0.000059 0.400012
vt 0.346428 0.200035
vt 0.000059 0.000059
vn 0.0000 -1.0000 -0.0000
vn -0.8165 0.3333 -0.4714
vn 0.8165 0.3333 -0.4714
vn 0.0000 0.3333 0.9428
usemtl b.007
s 1
f 33/49/33 34/50/33 35/51/33
f 33/49/34 35/51/34 36/52/34
f 33/49/35 36/52/35 34/53/35
f 34/53/36 36/52/36 35/54/36
o b.008
v 0.001878 0.448433 0.426697
v 0.042703 0.448433 0.497408
v -0.038947 0.448433 0.497408
v 0.001878 0.515100 0.473838
vt 0.346428 0.599988
vt 0.346428 0.999941
vt 0.000059 0.799965
vt 0.000059 0.400012
vt 0.346428 0.200035
vt 0.000059 0.000059
vn 0.0000 -1.0000 0.0000
vn -0.8165 0.3333 -0.4714
vn 0.8165 0.3333 -0.4714
vn 0.0000 0.3333 0.9428
usemtl b.008
s 1
f 37/55/37 38/56/37 39/57/37
f 37/55/38 39/57/38 40/58/38
f 37/55/39 40/58/39 38/59/39
f 38/59/40 40/58/40 39/60/40
o b.009
v 0.043446 0.379333 0.628095
v 0.084271 0.379333 0.698806
v 0.002622 0.379333 0.698806
v 0.043446 0.446000 0.675236
vt 0.346428 0.599988
vt 0.346428 0.999941
vt 0.000059 0.799965
vt 0.000059 0.400012
vt 0.346428 0.200035
vt 0.000059 0.000059
vn 0.0000 -1.0000 -0.0000
vn -0.8165 0.3333 -0.4714
vn 0.8165 0.3333 -0.4714
vn 0.0000 0.3333 0.9428
usemtl b.009
s 1
f 41/61/41 42/62/41 43/63/41
f 41/61/42 43/63/42 44/64/42
f 41/61/43 44/64/43 42/65/43
f 42/65/44 44/64/44 43/66/44
o b.010
v 0.167784 0.312333 0.785055
v 0.208609 0.312333 0.855766
v 0.126960 0.312333 0.855766
v 0.167784 0.379000 0.832196
vt 0.346428 0.599988
vt 0.346428 0.999941
vt 0.000059 0.799965
vt 0.000059 0.400012
vt 0.346428 0.200035
vt 0.000059 0.000059
vn 0.0000 -1.0000 -0.0000
vn -0.8165 0.3333 -0.4714
vn 0.8165 0.3333 -0.4714
vn 0.0000 0.3333 0.9428
usemtl b.010
s 1
f 45/67/45 46/68/45 47/69/45
f 45/67/46 47/69/46 48/70/46
f 45/67/47 48/70/47 46/71/47
f 46/71/48 48/70/48 47/72/48
o b.011
v 0.341753 0.248634 0.864978
v 0.382578 0.248634 0.935689
v 0.300929 0.248634 0.935689
v 0.341753 0.315300 0.912119
vt 0.346428 0.599988
vt 0.346428 0.999941
vt 0.000059 0.799965
vt 0.000059 0.400012
vt 0.346428 0.200035
vt 0.000059 0.000059
vn 0.0000 -1.0000 0.0000
vn -0.8165 0.3333 -0.4714
vn 0.8165 0.3333 -0.4714
vn 0.0000 0.3333 0.9428
usemtl b.011
s 1
f 49/73/49 50/74/49 51/75/49
f 49/73/50 51/75/50 52/76/50
f 49/73/51 52/76/51 50/77/51
f 50/77/52 52/76/52 51/78/52
o b.012
v 0.521184 0.189433 0.856762
v 0.562009 0.189433 0.927473
v 0.480360 0.189433 0.927473
v 0.521184 0.256100 0.903902
vt 0.346428 0.599988
vt 0.346428 0.999941
vt 0.000059 0.799965
vt 0.000059 0.400012
vt 0.346428 0.200035
vt 0.000059 0.000059
vn 0.0000 -1.0000 0.0000
vn -0.8165 0.3333 -0.4714
vn 0.8165 0.3333 -0.4714
vn 0.0000 0.3333 0.9428
usemtl b.012
s 1
f 53/79/53 54/80/53 55/81/53
f 53/79/54 55/81/54 56/82/54
f 53/79/55 56/82/55 54/83/55
f 54/83/56 56/82/56 55/84/56
o b.013
v 0.663305 0.136033 0.773323
v 0.704130 0.136033 0.844033
v 0.622481 0.136033 0.844033
v 0.663305 0.202700 0.820463
vt 0.346428 0.599988
vt 0.346428 0.999941
vt 0.000059 0.799965
vt 0.000059 0.400012
vt 0.346428 0.200035
vt 0.000059 0.000059
vn 0.0000 -1.0000 0.0000
vn -0.8165 0.3333 -0.4714
vn 0.8165 0.3333 -0.4714
vn 0.0000 0.3333 0.9428
usemtl b.013
s 1
f 57/85/57 58/86/57 59/87/57
f 57/85/58 59/87/58 60/88/58
f 57/85/59 60/88/59 58/89/59
f 58/89/60 60/88/60 59/90/60
o b.014
v 0.739209 0.089333 0.646592
v 0.780034 0.089333 0.717303
v 0.698384 0.089333 0.717303
v 0.739209 0.156000 0.693733
vt 0.346428 0.599988
vt 0.346428 0.999941
vt 0.000059 0.799965
vt 0.000059 0.400012
vt 0.346428 0.200035
vt 0.000059 0.000059
vn -0.0000 -1.0000 0.0000
vn -0.8165 0.3333 -0.4714
vn 0.8165 0.3333 -0.4714
vn 0.0000 0.3333 0.9428
usemtl b.014
s 1
f 61/91/61 62/92/61 63/93/61
f 61/91/62 63/93/62 64/94/62
f 61/91/63 64/94/63 62/95/63
f 62/95/64 64/94/64 63/96/64
o b.015
v 0.741500 0.050333 0.517560
v 0.782325 0.050333 0.588270
v 0.700675 0.050334 0.588270
v 0.741500 0.117000 0.564700
vt 0.346428 0.599988
vt 0.346428 0.999941
vt 0.000059 0.799965
vt 0.000059 0.400012
vt 0.346428 0.200035
vt 0.000059 0.000059
vn -0.0000 -1.0000 0.0000
vn -0.8165 0.3333 -0.4714
vn 0.8165 0.3333 -0.4714
vn 0.0000 0.3333 0.9428
usemtl b.015
s 1
f 65/97/65 66/98/65 67/99/65
f 65/97/66 67/99/66 68/100/66
f 65/97/67 68/100/67 66/101/67
f 66/101/68 68/100/68 67/102/68
o a.000
v 0.364025 0.916333 0.700370
v 0.282375 0.916333 0.700370
v 0.323200 0.916333 0.629660
v 0.323200 0.983000 0.676800
vt 0.346428 0.599988
vt 0.346428 0.999941
vt 0.000059 0.799965
vt 0.000059 0.400012
vt 0.346428 0.200035
vt 0.000059 0.000059
vn 0.0000 -1.0000 0.0000
vn 0.8165 0.3333 -0.4714
vn 0.0000 0.3333 0.9428
vn -0.8165 0.3333 -0.4714
usemtl a.000
s 1
f 69/103/69 70/104/69 71/105/69
f 69/103/70 71/105/70 72/106/70
f 69/103/71 72/106/71 70/107/71
f 70/107/72 72/106/72 71/108/72
o a.001
v 0.430525 0.877334 0.810970
v 0.348875 0.877334 0.810970
v 0.389700 0.877334 0.740259
v 0.389700 0.944000 0.787400
vt 0.346428 0.599988
vt 0.346428 0.999941
vt 0.000059 0.799965
vt 0.000059 0.400012
vt 0.346428 0.200035
vt 0.000059 0.000059
vn 0.0000 -1.0000 0.0000
vn 0.8165 0.3333 -0.4714
vn 0.0000 0.3333 0.9428
vn -0.8165 0.3333 -0.4714
usemtl a.001
s 1
f 73/109/73 74/110/73 75/111/73
f 73/109/74 75/111/74 76/112/74
f 73/109/75 76/112/75 74/113/75
f 74/113/76 76/112/76 75/114/76
o a.002
v 0.559625 0.830634 0.882770
v 0.477975 0.830634 0.882770
v 0.518800 0.830634 0.812059
v 0.518800 0.897300 0.859200
vt 0.346428 0.599988
vt 0.346428 0.999941
vt 0.000059 0.799965
vt 0.000059 0.400012
vt 0.346428 0.200035
vt 0.000059 0.000059
vn 0.0000 -1.0000 -0.0000
vn 0.8165 0.3333 -0.4714
vn 0.0000 0.3333 0.9428
vn -0.8165 0.3333 -0.4714
usemtl a.002
s 1
f 77/115/77 78/116/77 79/117/77
f 77/115/78 79/117/78 80/118/78
f 77/115/79 80/118/79 78/119/79
f 78/119/80 80/118/80 79/120/80
o a.003
v 0.724425 0.777234 0.883970
v 0.642775 0.777234 0.883970
v 0.683600 0.777234 0.813259
v 0.683600 0.843900 0.860400
vt 0.346428 0.599988
vt 0.346428 0.999941
vt 0.000059 0.799965
vt 0.000059 0.400012
vt 0.346428 0.200035
vt 0.000059 0.000059
vn 0.0000 -1.0000 0.0000
vn 0.8165 0.3333 -0.4714
vn 0.0000 0.3333 0.9428
vn -0.8165 0.3333 -0.4714
usemtl a.003
s 1
f 81/121/81 82/122/81 83/123/81
f 81/121/82 83/123/82 84/124/82
f 81/121/83 84/124/83 82/125/83
f 82/125/84 84/124/84 83/126/84
o a.004
v 0.883925 0.718034 0.801370
v 0.802275 0.718034 0.801370
v 0.843100 0.718034 0.730659
v 0.843100 0.784700 0.777800
vt 0.346428 0.599988
vt 0.346428 0.999941
vt 0.000059 0.799965
vt 0.000059 0.400012
vt 0.346428 0.200035
vt 0.000059 0.000059
vn 0.0000 -1.0000 0.0000
vn 0.8165 0.3333 -0.4714
vn 0.0000 0.3333 0.9428
vn -0.8165 0.3333 -0.4714
usemtl a.004
s 1
f 85/127/85 86/128/85 87/129/85
f 85/127/86 87/129/86 88/130/86
f 85/127/87 88/130/87 86/131/87
f 86/131/88 88/130/88 87/132/88
o a.005
v 0.994625 0.654334 0.645170
v 0.912975 0.654334 0.645170
v 0.953800 0.654334 0.574459
v 0.953800 0.721000 0.621600
vt 0.346428 0.599988
vt 0.346428 0.999941
vt 0.000059 0.799965
vt 0.000059 0.400012
vt 0.346428 0.200035
vt 0.000059 0.000059
vn 0.0000 -1.0000 0.0000
vn 0.8165 0.3333 -0.4714
vn 0.0000 0.3333 0.9428
vn -0.8165 0.3333 -0.4714
usemtl a.005
s 1
f 89/133/89 90/134/89 91/135/89
f 89/133/90 91/135/90 92/136/90
f 89/133/91 92/136/91 90/137/91
f 90/137/92 92/136/92 91/138/92
o a.006
v 1.023925 0.587334 0.447070
v 0.942275 0.587334 0.447070
v 0.983100 0.587334 0.376359
v 0.983100 0.654000 0.423500
vt 0.346428 0.599988
vt 0.346428 0.999941
vt 0.000059 0.799965
vt 0.000059 0.400012
vt 0.346428 0.200035
vt 0.000059 0.000059
vn 0.0000 -1.0000 0.0000
vn 0.8165 0.3333 -0.4714
vn 0.0000 0.3333 0.9428
vn -0.8165 0.3333 -0.4714
usemtl a.006
s 1
f 93/139/93 94/140/93 95/141/93
f 93/139/94 95/141/94 96/142/94
f 93/139/95 96/142/95 94/143/95
f 94/143/96 96/142/96 95/144/96
o a.007
v 0.959125 0.518234 0.251870
v 0.877475 0.518234 0.251870
v 0.918300 0.518234 0.181159
v 0.918300 0.584900 0.228300
vt 0.346428 0.599988
vt 0.346428 0.999941
vt 0.000059 0.799965
vt 0.000059 0.400012
vt 0.346428 0.200035
vt 0.000059 0.000059
vn 0.0000 -1.0000 -0.0000
vn 0.8165 0.3333 -0.4714
vn 0.0000 0.3333 0.9428
vn -0.8165 0.3333 -0.4714
usemtl a.007
s 1
f 97/145/97 98/146/97 99/147/97
f 97/145/98 99/147/98 100/148/98
f 97/145/99 100/148/99 98/149/99
f 98/149/100 100/148/100 99/150/100
o a.008
v 0.812525 0.448434 0.105270
v 0.730875 0.448434 0.105270
v 0.771700 0.448434 0.034559
v 0.771700 0.515100 0.081700
vt 0.346428 0.599988
vt 0.346428 0.999941
vt 0.000059 0.799965
vt 0.000059 0.400012
vt 0.346428 0.200035
vt 0.000059 0.000059
vn 0.0000 -1.0000 0.0000
vn 0.8165 0.3333 -0.4714
vn 0.0000 0.3333 0.9428
vn -0.8165 0.3333 -0.4714
usemtl a.008
s 1
f 101/151/101 102/152/101 103/153/101
f 101/151/102 103/153/102 104/154/102
f 101/151/103 104/154/103 102/155/103
f 102/155/104 104/154/104 103/156/104
o a.009
v 0.617325 0.379334 0.040570
v 0.535675 0.379334 0.040570
v 0.576500 0.379334 -0.030141
v 0.576500 0.446000 0.017000
vt 0.346428 0.599988
vt 0.346428 0.999941
vt 0.000059 0.799965
vt 0.000059 0.400012
vt 0.346428 0.200035
vt 0.000059 0.000059
vn 0.0000 -1.0000 0.0000
vn 0.8165 0.3333 -0.4714
vn 0.0000 0.3333 0.9428
vn -0.8165 0.3333 -0.4714
usemtl a.009
s 1
f 105/157/105 106/158/105 107/159/105
f 105/157/106 107/159/106 108/160/106
f 105/157/107 108/160/107 106/161/107
f 106/161/108 108/160/108 107/162/108
o a.010
v 0.419225 0.312334 0.069770
v 0.337575 0.312334 0.069770
v 0.378400 0.312334 -0.000941
v 0.378400 0.379000 0.046200
vt 0.346428 0.599988
vt 0.346428 0.999941
vt 0.000059 0.799965
vt 0.000059 0.400012
vt 0.346428 0.200035
vt 0.000059 0.000059
vn 0.0000 -1.0000 0.0000
vn 0.8165 0.3333 -0.4714
vn 0.0000 0.3333 0.9428
vn -0.8165 0.3333 -0.4714
usemtl a.010
s 1
f 109/163/109 110/164/109 111/165/109
f 109/163/110 111/165/110 112/166/110
f 109/163/111 112/166/111 110/167/111
f 110/167/112 112/166/112 111/168/112
o a.011
v 0.263025 0.248634 0.180470
v 0.181375 0.248634 0.180470
v 0.222200 0.248634 0.109759
v 0.222200 0.315300 0.156900
vt 0.346428 0.599988
vt 0.346428 0.999941
vt 0.000059 0.799965
vt 0.000059 0.400012
vt 0.346428 0.200035
vt 0.000059 0.000059
vn 0.0000 -1.0000 0.0000
vn 0.8165 0.3333 -0.4714
vn 0.0000 0.3333 0.9428
vn -0.8165 0.3333 -0.4714
usemtl a.011
s 1
f 113/169/113 114/170/113 115/171/113
f 113/169/114 115/171/114 116/172/114
f 113/169/115 116/172/115 114/173/115
f 114/173/116 116/172/116 115/174/116
o a.012
v 0.180425 0.189434 0.339970
v 0.098775 0.189434 0.339970
v 0.139600 0.189434 0.269259
v 0.139600 0.256100 0.316400
vt 0.346428 0.599988
vt 0.346428 0.999941
vt 0.000059 0.799965
vt 0.000059 0.400012
vt 0.346428 0.200035
vt 0.000059 0.000059
vn 0.0000 -1.0000 0.0000
vn 0.8165 0.3333 -0.4714
vn 0.0000 0.3333 0.9428
vn -0.8165 0.3333 -0.4714
usemtl a.012
s 1
f 117/175/117 118/176/117 119/177/117
f 117/175/118 119/177/118 120/178/118
f 117/175/119 120/178/119 118/179/119
f 118/179/120 120/178/120 119/180/120
o a.013
v 0.181625 0.136034 0.504770
v 0.099975 0.136034 0.504770
v 0.140800 0.136034 0.434059
v 0.140800 0.202700 0.481200
vt 0.346428 0.599988
vt 0.346428 0.999941
vt 0.000059 0.799965
vt 0.000059 0.400012
vt 0.346428 0.200035
vt 0.000059 0.000059
vn 0.0000 -1.0000 0.0000
vn 0.8165 0.3333 -0.4714
vn 0.0000 0.3333 0.9428
vn -0.8165 0.3333 -0.4714
usemtl a.013
s 1
f 121/181/121 122/182/121 123/183/121
f 121/181/122 123/183/122 124/184/122
f 121/181/123 124/184/123 122/185/123
f 122/185/124 124/184/124 123/186/124
o a.014
v 0.253425 0.089334 0.633870
v 0.171775 0.089334 0.633870
v 0.212600 0.089334 0.563159
v 0.212600 0.156000 0.610300
vt 0.346428 0.599988
vt 0.346428 0.999941
vt 0.000059 0.799965
vt 0.000059 0.400012
vt 0.346428 0.200035
vt 0.000059 0.000059
vn 0.0000 -1.0000 0.0000
vn 0.8165 0.3333 -0.4714
vn 0.0000 0.3333 0.9428
vn -0.8165 0.3333 -0.4714
usemtl a.014
s 1
f 125/187/125 126/188/125 127/189/125
f 125/187/126 127/189/126 128/190/126
f 125/187/127 128/190/127 126/191/127
f 126/191/128 128/190/128 127/192/128
o a.015
v 0.364025 0.050334 0.700370
v 0.282375 0.050334 0.700370
v 0.323200 0.050334 0.629659
v 0.323200 0.117000 0.676800
vt 0.346428 0.599988
vt 0.346428 0.999941
vt 0.000059 0.799965
vt 0.000059 0.400012
vt 0.346428 0.200035
vt 0.000059 0.000059
vn 0.0000 -1.0000 -0.0000
vn 0.8165 0.3333 -0.4714
vn 0.0000 0.3333 0.9428
vn -0.8165 0.3333 -0.4714
usemtl a.015
s 1
f 129/193/129 130/194/129 131/195/129
f 129/193/130 131/195/130 132/196/130
f 129/193/131 132/196/131 130/197/131
f 130/197/132 132/196/132 131/198/132
o c.000
v 0.394475 0.916333 0.282070
v 0.435300 0.916333 0.211360
v 0.476125 0.916333 0.282070
v 0.435300 0.983000 0.258500
vt 0.346428 0.599988
vt 0.346428 0.999941
vt 0.000059 0.799965
vt 0.000059 0.400012
vt 0.346428 0.200035
vt 0.000059 0.000059
vn 0.0000 -1.0000 0.0000
vn 0.0000 0.3333 0.9428
vn -0.8165 0.3333 -0.4714
vn 0.8165 0.3333 -0.4714
usemtl c.000
s 1
f 133/199/133 134/200/133 135/201/133
f 133/199/134 135/201/134 136/202/134
f 133/199/135 136/202/135 134/203/135
f 134/203/136 136/202/136 135/204/136
o c.001
v 0.265443 0.877334 0.284361
v 0.306268 0.877334 0.213650
v 0.347092 0.877334 0.284361
v 0.306268 0.944000 0.260791
vt 0.346428 0.599988
vt 0.346428 0.999941
vt 0.000059 0.799965
vt 0.000059 0.400012
vt 0.346428 0.200035
vt 0.000059 0.000059
vn 0.0000 -1.0000 0.0000
vn 0.0000 0.3333 0.9428
vn -0.8165 0.3333 -0.4714
vn 0.8165 0.3333 -0.4714
usemtl c.001
s 1
f 137/205/137 138/206/137 139/207/137
f 137/205/138 139/207/138 140/208/138
f 137/205/139 140/208/139 138/209/139
f 138/209/140 140/208/140 139/210/140
o c.002
v 0.138712 0.830634 0.360265
v 0.179537 0.830634 0.289554
v 0.220362 0.830634 0.360265
v 0.179537 0.897300 0.336695
vt 0.346428 0.599988
vt 0.346428 0.999941
vt 0.000059 0.799965
vt 0.000059 0.400012
vt 0.346428 0.200035
vt 0.000059 0.000059
vn 0.0000 -1.0000 0.0000
vn 0.0000 0.3333 0.9428
vn -0.8165 0.3333 -0.4714
vn 0.8165 0.3333 -0.4714
usemtl c.002
s 1
f 141/211/141 142/212/141 143/213/141
f 141/211/142 143/213/142 144/214/142
f 141/211/143 144/214/143 142/215/143
f 142/215/144 144/214/144 143/216/144
o c.003
v 0.055273 0.777234 0.502386
v 0.096098 0.777234 0.431675
v 0.136923 0.777234 0.502386
v 0.096098 0.843900 0.478816
vt 0.346428 0.599988
vt 0.346428 0.999941
vt 0.000059 0.799965
vt 0.000059 0.400012
vt 0.346428 0.200035
vt 0.000059 0.000059
vn 0.0000 -1.0000 0.0000
vn 0.0000 0.3333 0.9428
vn -0.8165 0.3333 -0.4714
vn 0.8165 0.3333 -0.4714
usemtl c.003
s 1
f 145/217/145 146/218/145 147/219/145
f 145/217/146 147/219/146 148/220/146
f 145/217/147 148/220/147 146/221/147
f 146/221/148 148/220/148 147/222/148
o c.004
v 0.047057 0.718034 0.681817
v 0.087881 0.718034 0.611106
v 0.128706 0.718034 0.681817
v 0.087881 0.784700 0.658247
vt 0.346428 0.599988
vt 0.346428 0.999941
vt 0.000059 0.799965
vt 0.000059 0.400012
vt 0.346428 0.200035
vt 0.000059 0.000059
vn 0.0000 -1.0000 -0.0000
vn 0.0000 0.3333 0.9428
vn -0.8165 0.3333 -0.4714
vn 0.8165 0.3333 -0.4714
usemtl c.004
s 1
f 149/223/149 150/224/149 151/225/149
f 149/223/150 151/225/150 152/226/150
f 149/223/151 152/226/151 150/227/151
f 150/227/152 152/226/152 151/228/152
o c.005
v 0.126980 0.654334 0.855786
v 0.167805 0.654334 0.785075
v 0.208630 0.654334 0.855786
v 0.167805 0.721000 0.832216
vt 0.346428 0.599988
vt 0.346428 0.999941
vt 0.000059 0.799965
vt 0.000059 0.400012
vt 0.346428 0.200035
vt 0.000059 0.000059
vn 0.0000 -1.0000 -0.0000
vn 0.0000 0.3333 0.9428
vn -0.8165 0.3333 -0.4714
vn 0.8165 0.3333 -0.4714
usemtl c.005
s 1
f 153/229/153 154/230/153 155/231/153
f 153/229/154 155/231/154 156/232/154
f 153/229/155 156/232/155 154/233/155
f 154/233/156 156/232/156 155/234/156
o c.006
v 0.283889 0.587334 0.980210
v 0.324714 0.587334 0.909500
v 0.365539 0.587334 0.980210
v 0.324714 0.654000 0.956640
vt 0.346428 0.599988
vt 0.346428 0.999941
vt 0.000059 0.799965
vt 0.000059 0.400012
vt 0.346428 0.200035
vt 0.000059 0.000059
vn 0.0000 -1.0000 0.0000
vn 0.0000 0.3333 0.9428
vn -0.8165 0.3333 -0.4714
vn 0.8165 0.3333 -0.4714
usemtl c.006
s 1
f 157/235/157 158/236/157 159/237/157
f 157/235/158 159/237/158 160/238/158
f 157/235/159 160/238/159 158/239/159
f 158/239/160 160/238/160 159/240/160
o c.007
v 0.485338 0.518234 1.021692
v 0.526162 0.518234 0.950981
v 0.566987 0.518234 1.021692
v 0.526162 0.584900 0.998122
vt 0.346428 0.599988
vt 0.346428 0.999941
vt 0.000059 0.799965
vt 0.000059 0.400012
vt 0.346428 0.200035
vt 0.000059 0.000059
vn 0.0000 -1.0000 0.0000
vn 0.0000 0.3333 0.9428
vn -0.8165 0.3333 -0.4714
vn 0.8165 0.3333 -0.4714
usemtl c.007
s 1
f 161/241/161 162/242/161 163/243/161
f 161/241/162 163/243/162 164/244/162
f 161/241/163 164/244/163 162/245/163
f 162/245/164 164/244/164 163/246/164
o c.008
v 0.685597 0.448434 0.968033
v 0.726422 0.448434 0.897322
v 0.767246 0.448434 0.968033
v 0.726422 0.515100 0.944463
vt 0.346428 0.599988
vt 0.346428 0.999941
vt 0.000059 0.799965
vt 0.000059 0.400012
vt 0.346428 0.200035
vt 0.000059 0.000059
vn 0.0000 -1.0000 0.0000
vn 0.0000 0.3333 0.9428
vn -0.8165 0.3333 -0.4714
vn 0.8165 0.3333 -0.4714
usemtl c.008
s 1
f 165/247/165 166/248/165 167/249/165
f 165/247/166 167/249/166 168/250/166
f 165/247/167 168/250/167 166/251/167
f 166/251/168 168/250/168 167/252/168
o c.009
v 0.839229 0.379334 0.831335
v 0.880054 0.379334 0.760624
v 0.920878 0.379334 0.831335
v 0.880054 0.446000 0.807764
vt 0.346428 0.599988
vt 0.346428 0.999941
vt 0.000059 0.799965
vt 0.000059 0.400012
vt 0.346428 0.200035
vt 0.000059 0.000059
vn 0.0000 -1.0000 0.0000
vn 0.0000 0.3333 0.9428
vn -0.8165 0.3333 -0.4714
vn 0.8165 0.3333 -0.4714
usemtl c.009
s 1
f 169/253/169 170/254/169 171/255/169
f 169/253/170 171/255/170 172/256/170
f 169/253/171 172/256/171 170/257/171
f 170/257/172 172/256/172 171/258/172
o c.010
v 0.912991 0.312334 0.645175
v 0.953816 0.312334 0.574464
v 0.994640 0.312334 0.645175
v 0.953816 0.379000 0.621605
vt 0.346428 0.599988
vt 0.346428 0.999941
vt 0.000059 0.799965
vt 0.000059 0.400012
vt 0.346428 0.200035
vt 0.000059 0.000059
vn 0.0000 -1.0000 0.0000
vn 0.0000 0.3333 0.9428
vn -0.8165 0.3333 -0.4714
vn 0.8165 0.3333 -0.4714
usemtl c.010
s 1
f 173/259/173 174/260/173 175/261/173
f 173/259/174 175/261/174 176/262/174
f 173/259/175 176/262/175 174/263/175
f 174/263/176 176/262/176 175/264/176
o c.011
v 0.895222 0.248634 0.454552
v 0.936047 0.248634 0.383841
v 0.976871 0.248634 0.454552
v 0.936047 0.315300 0.430982
vt 0.346428 0.599988
vt 0.346428 0.999941
vt 0.000059 0.799965
vt 0.000059 0.400012
vt 0.346428 0.200035
vt 0.000059 0.000059
vn 0.0000 -1.0000 0.0000
vn 0.0000 0.3333 0.9428
vn -0.8165 0.3333 -0.4714
vn 0.8165 0.3333 -0.4714
usemtl c.011
s 1
f 177/265/177 178/266/177 179/267/177
f 177/265/178 179/267/178 180/268/178
f 177/265/179 180/268/179 178/269/179
f 178/269/180 180/268/180 179/270/180
o c.012
v 0.798391 0.189434 0.303268
v 0.839216 0.189434 0.232557
v 0.880040 0.189434 0.303268
v 0.839216 0.256100 0.279698
vt 0.346428 0.599988
vt 0.346428 0.999941
vt 0.000059 0.799965
vt 0.000059 0.400012
vt 0.346428 0.200035
vt 0.000059 0.000059
vn 0.0000 -1.0000 0.0000
vn 0.0000 0.3333 0.9428
vn -0.8165 0.3333 -0.4714
vn 0.8165 0.3333 -0.4714
usemtl c.012
s 1
f 181/271/181 182/272/181 183/273/181
f 181/271/182 183/273/182 184/274/182
f 181/271/183 184/274/183 182/275/183
f 182/275/184 184/274/184 183/276/184
o c.013
v 0.655070 0.136034 0.221907
v 0.695895 0.136034 0.151197
v 0.736719 0.136034 0.221907
v 0.695895 0.202700 0.198337
vt 0.346428 0.599988
vt 0.346428 0.999941
vt 0.000059 0.799965
vt 0.000059 0.400012
vt 0.346428 0.200035
vt 0.000059 0.000059
vn 0.0000 -1.0000 0.0000
vn 0.0000 0.3333 0.9428
vn -0.8165 0.3333 -0.4714
vn 0.8165 0.3333 -0.4714
usemtl c.013
s 1
f 185/277/185 186/278/185 187/279/185
f 185/277/186 187/279/186 188/280/186
f 185/277/187 188/280/187 186/281/187
f 186/281/188 188/280/188 187/282/188
o c.014
v 0.507366 0.089334 0.219538
v 0.548191 0.089334 0.148827
v 0.589016 0.089334 0.219538
v 0.548191 0.156000 0.195968
vt 0.346428 0.599988
vt 0.346428 0.999941
vt 0.000059 0.799965
vt 0.000059 0.400012
vt 0.346428 0.200035
vt 0.000059 0.000059
vn 0.0000 -1.0000 0.0000
vn -0.0000 0.3333 0.9428
vn -0.8165 0.3333 -0.4714
vn 0.8165 0.3333 -0.4714
usemtl c.014
s 1
f 189/283/189 190/284/189 191/285/189
f 189/283/190 191/285/190 192/286/190
f 189/283/191 192/286/191 190/287/191
f 190/287/192 192/286/192 191/288/192
o c.015
v 0.394475 0.050334 0.282070
v 0.435300 0.050334 0.211360
v 0.476125 0.050334 0.282070
v 0.435300 0.117000 0.258500
vt 0.346428 0.599988
vt 0.346428 0.999941
vt 0.000059 0.799965
vt 0.000059 0.400012
vt 0.346428 0.200035
vt 0.000059 0.000059
vn 0.0000 -1.0000 0.0000
vn 0.0000 0.3333 0.9428
vn -0.8165 0.3333 -0.4714
vn 0.8165 0.3333 -0.4714
usemtl c.015
s 1
f 193/289/193 194/290/193 195/291/193
f 193/289/194 195/291/194 196/292/194
f 193/289/195 196/292/195 194/293/195
f 194/293/196 196/292/196 195/294/196
