# Blender v2.81 (sub 16) OBJ File: ''
# www.blender.org
mtllib air_essence.mtl
o r02
v 0.323223 0.500000 0.676777
v 0.323223 0.500000 0.323223
v 0.500000 0.250000 0.500000
v 0.676777 0.500000 0.676777
v 0.500000 0.750000 0.500000
v 0.676777 0.500000 0.323223
vt 0.500000 0.433022
vt 0.500000 0.144384
vt 0.749967 0.288703
vt 0.999934 0.433022
vt 0.999934 0.144384
vt 0.000066 0.433022
vt 0.000066 0.144384
vt 0.250033 0.288703
vt 0.749967 0.000066
vt 0.250033 0.000066
vn -0.8165 -0.5774 0.0000
vn 0.0000 -0.5774 0.8165
vn 0.0000 0.5774 0.8165
vn -0.8165 0.5774 0.0000
vn 0.0000 -0.5774 -0.8165
vn 0.0000 0.5774 -0.8165
vn 0.8165 -0.5774 0.0000
vn 0.8165 0.5774 0.0000
usemtl Default_OBJ.001
s off
f 1/1/1 2/2/1 3/3/1
f 1/4/2 3/3/2 4/5/2
f 1/6/3 4/7/3 5/8/3
f 1/1/4 5/8/4 2/2/4
f 2/2/5 6/9/5 3/3/5
f 2/2/6 5/8/6 6/10/6
f 6/9/7 4/5/7 3/3/7
f 6/10/8 5/8/8 4/7/8
